<?xml version="1.0" standalone="no"?>
<!DOCTYPE svg PUBLIC "-//W3C//DTD SVG 20010904//EN"
 "http://www.w3.org/TR/2001/REC-SVG-20010904/DTD/svg10.dtd">
<svg version="1.0" xmlns="http://www.w3.org/2000/svg"
 width="2226.000000pt" height="2051.000000pt" viewBox="0 0 2226.000000 2051.000000"
 preserveAspectRatio="xMidYMid meet">

<g transform="translate(0.000000,2051.000000) scale(0.100000,-0.100000)"
fill="#000000" stroke="none">
<path d="M3700 20493 c-815 -49 -1618 -357 -2260 -870 -174 -138 -477 -441
-613 -612 -485 -610 -761 -1312 -817 -2081 -8 -102 -10 -2130 -8 -6775 4
-6203 5 -6638 21 -6755 41 -297 104 -574 185 -805 388 -1121 1270 -1981 2418
-2361 250 -82 527 -142 835 -181 124 -16 673 -17 7549 -21 7567 -3 7592 -3
7880 34 1284 163 2390 931 2959 2052 176 348 290 694 355 1077 54 314 51 -106
51 7085 0 6394 -1 6691 -18 6830 -61 484 -177 880 -376 1280 -180 361 -386
651 -666 939 -299 307 -602 534 -975 729 -422 221 -862 352 -1420 424 -74 9
-1758 12 -7570 13 -4111 1 -7500 0 -7530 -2z m14930 -433 c868 -60 1631 -400
2220 -990 265 -266 462 -541 630 -885 172 -351 277 -707 327 -1115 17 -138 18
-457 18 -6700 0 -6932 1 -6714 -45 -7028 -79 -541 -296 -1064 -619 -1495 -556
-741 -1383 -1217 -2330 -1342 -62 -8 -194 -19 -294 -25 -276 -16 -14888 -8
-15017 8 -180 23 -397 62 -531 96 -819 208 -1527 704 -1986 1391 -295 443
-458 887 -541 1475 -15 105 -16 692 -20 6695 -2 4534 0 6630 8 6740 53 820
375 1550 937 2125 603 619 1414 989 2301 1049 179 12 14767 13 14942 1z"/>
<path d="M7936 16778 c-18 -92 -1738 -8226 -1742 -8240 -5 -17 52 -18 1095
-18 1039 0 1100 1 1105 18 2 9 145 681 316 1492 171 811 313 1483 316 1493 5
16 52 17 795 17 810 0 910 -4 1067 -41 384 -89 594 -320 679 -744 27 -137 24
-652 -7 -1090 -32 -450 -33 -821 -2 -987 27 -145 66 -267 102 -317 16 -21 382
-412 814 -870 l786 -832 -14 -32 c-7 -18 -300 -646 -651 -1397 -350 -751 -652
-1398 -671 -1438 l-34 -74 48 28 c26 15 685 407 1464 871 l1418 843 1087 -836
c848 -652 1089 -833 1091 -818 1 10 -85 624 -193 1364 -107 740 -195 1355
-195 1366 0 18 248 196 1231 885 678 475 1241 871 1253 881 20 17 -40 17
-1374 18 l-1395 0 -220 1385 c-121 762 -223 1384 -228 1382 -4 -1 -371 -619
-815 -1372 l-807 -1370 -156 -3 -156 -2 -41 84 c-83 169 -148 395 -189 651
-22 141 -24 548 -4 1314 14 558 11 762 -14 956 -69 522 -305 829 -744 965 -56
17 -101 35 -101 39 0 4 39 14 88 21 367 53 769 215 1042 419 97 72 256 225
333 321 191 236 340 563 411 897 49 231 60 355 60 663 0 308 -11 427 -60 650
-185 835 -761 1299 -1789 1439 -332 45 -278 45 -2686 48 l-2306 4 -7 -33z
m3697 -1698 c554 -40 863 -231 969 -597 20 -69 23 -99 22 -268 0 -157 -4 -206
-21 -281 -98 -419 -380 -676 -859 -783 -242 -54 -244 -54 -1332 -58 -974 -4
-1013 -3 -1008 14 7 26 416 1964 416 1974 0 12 1649 11 1813 -1z m4192 -6174
c85 -539 155 -983 155 -988 0 -4 411 -8 914 -8 503 0 917 -4 920 -8 4 -6
-1524 -1083 -1637 -1154 -7 -4 40 -348 137 -1012 81 -553 146 -1010 144 -1015
-1 -6 -360 267 -796 606 -518 401 -799 613 -810 610 -9 -2 -467 -272 -1017
-600 -549 -328 -1001 -595 -1003 -593 -3 3 855 1841 909 1948 l19 37 -567 598
-568 598 935 5 935 5 502 850 c276 468 539 913 585 990 45 77 84 133 85 125 1
-8 72 -456 158 -994z"/>
<path d="M21606 1004 c-295 -71 -454 -436 -314 -722 59 -121 198 -231 333
-267 309 -80 635 180 635 507 0 213 -167 424 -379 480 -80 20 -195 21 -275 2z
m224 -64 c228 -43 379 -261 341 -492 -17 -102 -50 -169 -122 -244 -102 -105
-228 -149 -365 -126 -348 58 -494 483 -253 737 110 116 237 156 399 125z"/>
<path d="M21643 793 l-103 -4 0 -274 0 -275 50 0 50 0 0 105 0 105 70 0 c95 0
133 -17 153 -69 10 -23 17 -64 17 -91 l0 -50 45 0 45 0 0 73 c0 89 -20 133
-73 163 l-38 21 40 17 c25 10 49 29 61 48 24 40 26 117 4 163 -30 64 -92 77
-321 68z m218 -101 c36 -40 38 -81 5 -119 -23 -27 -29 -28 -125 -31 l-101 -4
0 97 0 97 96 -4 c94 -4 97 -5 125 -36z"/>
</g>
</svg>
